<?xml version="1.0" encoding="UTF-8"?> <svg xmlns="http://www.w3.org/2000/svg" height="133" viewBox="0 0 668 133" width="668"><path d="m625.493 105.32c-13.4 0-24.898-11.47-24.898-27.716 0-16.24 11.498-27.71 24.898-27.71 13.417 0 24.914 11.47 24.914 27.71 0 16.247-11.497 27.716-24.914 27.716zm-40.233 12.259c0 1.64 1.263 2.832 2.814 2.832l8.329.01 6.129-6.114s8.532 7.247 23.928 7.26c22.98.023 41.185-18.16 41.185-43.963 0-25.796-18.205-43.956-41.185-43.956-16.286 0-23.946 9.555-23.946 9.555v-13.347l.027-.152h-.027v-29.5h-17.254zm-339.924-83.649-33.901 84.557a2.62 2.62 0 0 1 -2.432 1.644h-11.814a2.62 2.62 0 0 1 -2.432-1.644l-33.901-84.556h18.237l23.998 62.258 24.008-62.258h18.237zm4.364-19.42c0-5.283 4.42-9.69 9.723-9.69s9.72 4.407 9.72 9.69c0 5.297-4.417 9.706-9.72 9.706s-9.722-4.41-9.722-9.706m9.867 19.547c-4.644 0-8.41 3.857-8.41 8.617v77.583h16.818v-77.583c0-4.76-3.764-8.617-8.408-8.617m276.006 70.97c-12.46 0-23.97-11.48-23.97-27.741 0-16.254 11.51-27.736 23.97-27.736 12.478 0 23.97 11.482 23.97 27.736 0 16.262-11.492 27.74-23.97 27.74m0-71.737c-23.001 0-41.222 18.179-41.222 43.997 0 25.826 18.22 44.004 41.222 44.004 23.017 0 41.24-18.178 41.24-44.004 0-25.818-18.223-43.997-41.24-43.997m-49.667 35.19v51.65h-17.262v-51.649c0-11.481-7.668-19.128-16.302-19.128-8.627 0-16.294 7.647-16.294 19.128v51.65h-17.263v-51.65c0-11.481-7.674-19.128-16.302-19.128-8.627 0-16.301 7.647-16.301 19.128v51.65h-17.254v-83.45a2.636 2.636 0 0 1 2.639-2.633l6.662.01 7.953 7.739s6.715-8.707 20.135-8.707c16.302 0 23.977 13.389 23.977 13.389 0 .194 8.627-13.39 25.888-13.39 16.295 0 29.724 13.39 29.724 35.392m-167.278 36.637c-13.417 0-24.914-11.47-24.914-27.717 0-16.24 11.497-27.709 24.914-27.709 13.4 0 24.899 11.468 24.899 27.71 0 16.246-11.5 27.716-24.9 27.716zm40.234-105.118h-17.254v29.501h-.028l.028.152v13.346s-7.661-9.553-23.947-9.553c-22.98 0-41.186 18.16-41.186 43.955 0 25.803 18.206 43.985 41.186 43.965 15.395-.015 23.927-7.262 23.927-7.262l6.129 6.116 8.33-.011c1.55 0 2.815-1.192 2.815-2.832zm-239.063 39.132-72.97 86.052a.706.706 0 0 1 -.708.254.71.71 0 0 1 -.574-.488l-38.038-106.217a.71.71 0 0 1 .135-.74.7.7 0 0 1 .708-.254l111.008 20.167a.708.708 0 0 1 .572.486.707.707 0 0 1 -.134.74m7.215-3.276a8.186 8.186 0 0 0 -6.309-5.35l-111.008-20.168c-2.94-.533-5.855.508-7.789 2.791-1.506 1.775-1.848 3.132-1.908 6.246v112.316l32.06-22.097 6.407 17.892a8.193 8.193 0 0 0 6.312 5.352c.39.07.776.113 1.162.13 2.532.106 4.948-.94 6.627-2.92l72.967-86.05a8.188 8.188 0 0 0 1.48-8.142" fill-rule="evenodd"></path></svg> 